<mxfile host="app.diagrams.net" agent="Mozilla/5.0 (Windows NT 10.0; Win64; x64) AppleWebKit/537.36 (KHTML, like Gecko) Chrome/129.0.0.0 Safari/537.36 Edg/129.0.0.0" version="24.7.17">
  <diagram id="C5RBs43oDa-KdzZeNtuy" name="Page-1">
    <mxGraphModel dx="1426" dy="781" grid="1" gridSize="10" guides="1" tooltips="1" connect="1" arrows="1" fold="1" page="1" pageScale="1" pageWidth="827" pageHeight="1169" math="0" shadow="0">
      <root>
        <mxCell id="WIyWlLk6GJQsqaUBKTNV-0" />
        <mxCell id="WIyWlLk6GJQsqaUBKTNV-1" parent="WIyWlLk6GJQsqaUBKTNV-0" />
        <mxCell id="WIyWlLk6GJQsqaUBKTNV-3" value="Wake Up at 6:30" style="rounded=1;whiteSpace=wrap;html=1;fontSize=12;glass=0;strokeWidth=1;shadow=0;" parent="WIyWlLk6GJQsqaUBKTNV-1" vertex="1">
          <mxGeometry x="220" y="30" width="120" height="40" as="geometry" />
        </mxCell>
        <mxCell id="_O9w3AWUiEloDKKQ5Gdf-20" value="" style="edgeStyle=orthogonalEdgeStyle;rounded=0;orthogonalLoop=1;jettySize=auto;html=1;" edge="1" parent="WIyWlLk6GJQsqaUBKTNV-1" source="_O9w3AWUiEloDKKQ5Gdf-0" target="_O9w3AWUiEloDKKQ5Gdf-19">
          <mxGeometry relative="1" as="geometry">
            <Array as="points">
              <mxPoint x="80" y="190" />
            </Array>
          </mxGeometry>
        </mxCell>
        <mxCell id="_O9w3AWUiEloDKKQ5Gdf-0" value="If&amp;nbsp;&lt;div&gt;school working&lt;/div&gt;" style="rhombus;whiteSpace=wrap;html=1;" vertex="1" parent="WIyWlLk6GJQsqaUBKTNV-1">
          <mxGeometry x="200" y="110" width="160" height="160" as="geometry" />
        </mxCell>
        <mxCell id="_O9w3AWUiEloDKKQ5Gdf-27" value="" style="edgeStyle=orthogonalEdgeStyle;rounded=0;orthogonalLoop=1;jettySize=auto;html=1;" edge="1" parent="WIyWlLk6GJQsqaUBKTNV-1" source="_O9w3AWUiEloDKKQ5Gdf-6" target="_O9w3AWUiEloDKKQ5Gdf-26">
          <mxGeometry relative="1" as="geometry" />
        </mxCell>
        <mxCell id="_O9w3AWUiEloDKKQ5Gdf-6" value="Bord to bus&lt;br&gt;7:15" style="rounded=1;whiteSpace=wrap;html=1;" vertex="1" parent="WIyWlLk6GJQsqaUBKTNV-1">
          <mxGeometry x="40" y="370" width="120" height="60" as="geometry" />
        </mxCell>
        <mxCell id="_O9w3AWUiEloDKKQ5Gdf-25" value="" style="edgeStyle=orthogonalEdgeStyle;rounded=0;orthogonalLoop=1;jettySize=auto;html=1;" edge="1" parent="WIyWlLk6GJQsqaUBKTNV-1" source="_O9w3AWUiEloDKKQ5Gdf-8" target="_O9w3AWUiEloDKKQ5Gdf-24">
          <mxGeometry relative="1" as="geometry" />
        </mxCell>
        <mxCell id="_O9w3AWUiEloDKKQ5Gdf-8" value="Wake up&lt;div&gt;7:20&lt;/div&gt;" style="rounded=1;whiteSpace=wrap;html=1;" vertex="1" parent="WIyWlLk6GJQsqaUBKTNV-1">
          <mxGeometry x="420" y="360" width="120" height="60" as="geometry" />
        </mxCell>
        <mxCell id="_O9w3AWUiEloDKKQ5Gdf-12" value="" style="endArrow=classic;html=1;rounded=0;exitX=0.5;exitY=1;exitDx=0;exitDy=0;entryX=0.5;entryY=0;entryDx=0;entryDy=0;" edge="1" parent="WIyWlLk6GJQsqaUBKTNV-1" source="WIyWlLk6GJQsqaUBKTNV-3" target="_O9w3AWUiEloDKKQ5Gdf-0">
          <mxGeometry width="50" height="50" relative="1" as="geometry">
            <mxPoint x="230" y="120" as="sourcePoint" />
            <mxPoint x="280" y="70" as="targetPoint" />
            <Array as="points">
              <mxPoint x="280" y="90" />
              <mxPoint x="280" y="100" />
            </Array>
          </mxGeometry>
        </mxCell>
        <mxCell id="_O9w3AWUiEloDKKQ5Gdf-16" value="yes" style="text;html=1;align=center;verticalAlign=middle;resizable=0;points=[];autosize=1;strokeColor=none;fillColor=none;" vertex="1" parent="WIyWlLk6GJQsqaUBKTNV-1">
          <mxGeometry x="130" y="160" width="40" height="30" as="geometry" />
        </mxCell>
        <mxCell id="_O9w3AWUiEloDKKQ5Gdf-23" value="" style="edgeStyle=orthogonalEdgeStyle;rounded=0;orthogonalLoop=1;jettySize=auto;html=1;" edge="1" parent="WIyWlLk6GJQsqaUBKTNV-1" source="_O9w3AWUiEloDKKQ5Gdf-17" target="_O9w3AWUiEloDKKQ5Gdf-8">
          <mxGeometry relative="1" as="geometry" />
        </mxCell>
        <mxCell id="_O9w3AWUiEloDKKQ5Gdf-17" value="keep sleeping" style="whiteSpace=wrap;html=1;" vertex="1" parent="WIyWlLk6GJQsqaUBKTNV-1">
          <mxGeometry x="420" y="260" width="120" height="60" as="geometry" />
        </mxCell>
        <mxCell id="_O9w3AWUiEloDKKQ5Gdf-22" value="" style="edgeStyle=orthogonalEdgeStyle;rounded=0;orthogonalLoop=1;jettySize=auto;html=1;" edge="1" parent="WIyWlLk6GJQsqaUBKTNV-1" source="_O9w3AWUiEloDKKQ5Gdf-19" target="_O9w3AWUiEloDKKQ5Gdf-6">
          <mxGeometry relative="1" as="geometry" />
        </mxCell>
        <mxCell id="_O9w3AWUiEloDKKQ5Gdf-19" value="Get ready" style="whiteSpace=wrap;html=1;" vertex="1" parent="WIyWlLk6GJQsqaUBKTNV-1">
          <mxGeometry x="40" y="260" width="120" height="60" as="geometry" />
        </mxCell>
        <mxCell id="_O9w3AWUiEloDKKQ5Gdf-29" value="" style="edgeStyle=orthogonalEdgeStyle;rounded=0;orthogonalLoop=1;jettySize=auto;html=1;" edge="1" parent="WIyWlLk6GJQsqaUBKTNV-1" source="_O9w3AWUiEloDKKQ5Gdf-24" target="_O9w3AWUiEloDKKQ5Gdf-28">
          <mxGeometry relative="1" as="geometry" />
        </mxCell>
        <mxCell id="_O9w3AWUiEloDKKQ5Gdf-24" value="Go to park&lt;br&gt;7:30" style="rounded=1;whiteSpace=wrap;html=1;" vertex="1" parent="WIyWlLk6GJQsqaUBKTNV-1">
          <mxGeometry x="420" y="440" width="120" height="60" as="geometry" />
        </mxCell>
        <mxCell id="_O9w3AWUiEloDKKQ5Gdf-31" value="" style="edgeStyle=orthogonalEdgeStyle;rounded=0;orthogonalLoop=1;jettySize=auto;html=1;" edge="1" parent="WIyWlLk6GJQsqaUBKTNV-1" source="_O9w3AWUiEloDKKQ5Gdf-26" target="_O9w3AWUiEloDKKQ5Gdf-30">
          <mxGeometry relative="1" as="geometry" />
        </mxCell>
        <mxCell id="_O9w3AWUiEloDKKQ5Gdf-26" value="Study in school" style="rounded=1;whiteSpace=wrap;html=1;" vertex="1" parent="WIyWlLk6GJQsqaUBKTNV-1">
          <mxGeometry x="40" y="510" width="120" height="60" as="geometry" />
        </mxCell>
        <mxCell id="_O9w3AWUiEloDKKQ5Gdf-33" value="" style="edgeStyle=orthogonalEdgeStyle;rounded=0;orthogonalLoop=1;jettySize=auto;html=1;" edge="1" parent="WIyWlLk6GJQsqaUBKTNV-1" source="_O9w3AWUiEloDKKQ5Gdf-28" target="_O9w3AWUiEloDKKQ5Gdf-32">
          <mxGeometry relative="1" as="geometry" />
        </mxCell>
        <mxCell id="_O9w3AWUiEloDKKQ5Gdf-28" value="Come back and get ready till&lt;br&gt;8:45" style="rounded=1;whiteSpace=wrap;html=1;" vertex="1" parent="WIyWlLk6GJQsqaUBKTNV-1">
          <mxGeometry x="420" y="520" width="120" height="60" as="geometry" />
        </mxCell>
        <mxCell id="_O9w3AWUiEloDKKQ5Gdf-30" value="Come back home&lt;br&gt;2:30" style="rounded=1;whiteSpace=wrap;html=1;" vertex="1" parent="WIyWlLk6GJQsqaUBKTNV-1">
          <mxGeometry x="40" y="640" width="120" height="60" as="geometry" />
        </mxCell>
        <mxCell id="_O9w3AWUiEloDKKQ5Gdf-35" value="" style="edgeStyle=orthogonalEdgeStyle;rounded=0;orthogonalLoop=1;jettySize=auto;html=1;" edge="1" parent="WIyWlLk6GJQsqaUBKTNV-1" source="_O9w3AWUiEloDKKQ5Gdf-32" target="_O9w3AWUiEloDKKQ5Gdf-34">
          <mxGeometry relative="1" as="geometry" />
        </mxCell>
        <mxCell id="_O9w3AWUiEloDKKQ5Gdf-32" value="Study till&lt;div&gt;9:30&lt;/div&gt;" style="rounded=1;whiteSpace=wrap;html=1;" vertex="1" parent="WIyWlLk6GJQsqaUBKTNV-1">
          <mxGeometry x="420" y="610" width="120" height="60" as="geometry" />
        </mxCell>
        <mxCell id="_O9w3AWUiEloDKKQ5Gdf-34" value="Eat breakfast" style="rounded=1;whiteSpace=wrap;html=1;" vertex="1" parent="WIyWlLk6GJQsqaUBKTNV-1">
          <mxGeometry x="420" y="700" width="120" height="60" as="geometry" />
        </mxCell>
        <mxCell id="_O9w3AWUiEloDKKQ5Gdf-36" value="" style="edgeStyle=orthogonalEdgeStyle;rounded=0;orthogonalLoop=1;jettySize=auto;html=1;entryX=0.5;entryY=0;entryDx=0;entryDy=0;" edge="1" parent="WIyWlLk6GJQsqaUBKTNV-1" source="_O9w3AWUiEloDKKQ5Gdf-0" target="_O9w3AWUiEloDKKQ5Gdf-17">
          <mxGeometry relative="1" as="geometry">
            <mxPoint x="360" y="190" as="sourcePoint" />
            <mxPoint x="500" y="190" as="targetPoint" />
            <Array as="points" />
          </mxGeometry>
        </mxCell>
        <mxCell id="_O9w3AWUiEloDKKQ5Gdf-21" value="NO" style="text;html=1;align=center;verticalAlign=middle;resizable=0;points=[];autosize=1;strokeColor=none;fillColor=none;" vertex="1" parent="WIyWlLk6GJQsqaUBKTNV-1">
          <mxGeometry x="400" y="150" width="40" height="30" as="geometry" />
        </mxCell>
      </root>
    </mxGraphModel>
  </diagram>
</mxfile>
